<svg width="130" height="32" viewBox="0 0 130 32" fill="none" xmlns="http://www.w3.org/2000/svg">
    <path d="M9.6363 11.4113C10.6171 11.4113 11.4123 10.6162 11.4123 9.63533C11.4123 8.6545 10.6171 7.85938 9.6363 7.85938C8.65547 7.85938 7.86035 8.6545 7.86035 9.63533C7.86035 10.6162 8.65547 11.4113 9.6363 11.4113Z" fill="#FF0000"/>
    <g clip-path="url(#clip0_1219_39006)">
        <path d="M63.3322 8.00586H57.7795C56.0768 8.00586 54.6699 9.26439 54.4478 10.9674L52.856 23.9979H56.1137L56.7059 19.2224H58.9805L61.5183 23.9979H65.2942L62.196 18.135L65.6643 13.929C67.9224 11.1895 66.6639 8.00619 63.3322 8.00619V8.00586ZM62.5178 12.5961L60.0745 15.6317C59.9264 15.817 59.6671 15.9278 59.4451 15.9278H57.1129L57.6683 11.2636H61.9993C62.7028 11.2636 62.9989 11.967 62.5175 12.5961H62.5178Z" fill="black"/>
        <path d="M91.8522 8.00586H86.2995C84.5968 8.00586 83.1899 9.26439 82.9678 10.9674L81.376 23.9979H84.6337L85.2259 19.2224H87.5005L90.0383 23.9979H93.8142L90.7161 18.135L94.1843 13.929C96.4425 11.1895 95.1839 8.00619 91.8522 8.00619V8.00586ZM91.0379 12.5961L88.5945 15.6317C88.4464 15.817 88.1872 15.9278 87.9651 15.9278H85.6329L86.1883 11.2636H90.5193C91.2228 11.2636 91.5189 11.967 91.0375 12.5961H91.0379Z" fill="#FF2410"/>
        <path d="M35.3092 8.00586H29.7566C28.0539 8.00586 26.6469 9.26439 26.4248 10.9674L24.833 23.9979H28.0907L28.683 19.2224H32.0147C32.829 19.2224 33.6434 18.8522 34.1988 18.1488L37.6786 13.9287C40.0847 11.0043 38.641 8.00586 35.3092 8.00586ZM34.5317 12.5961L32.0884 15.6317C31.9403 15.817 31.681 15.9278 31.459 15.9278H29.0896L29.645 11.2636H34.0132C34.7167 11.2636 35.0128 11.967 34.5314 12.5961H34.5317Z" fill="black"/>
        <path d="M46.748 7.85742C43.3422 7.85742 40.307 10.6709 39.8624 14.2244L39.4183 17.7411C38.9741 21.2949 41.3431 24.1453 44.7488 24.1453C48.1546 24.1453 51.1899 21.2949 51.6344 17.7411L52.0786 14.2244C52.5227 10.6709 50.1534 7.85742 46.748 7.85742ZM48.9689 14.2244L48.5247 17.7782C48.3026 19.481 46.822 20.8879 45.1562 20.8879C43.4903 20.8879 42.3058 19.4813 42.5279 17.7782L42.9721 14.2244C43.1942 12.4845 44.6748 11.1148 46.3407 11.1148C48.0065 11.1148 49.191 12.4845 48.9689 14.2244Z" fill="black"/>
        <path d="M12.8063 12.8182C12.473 15.5945 14.25 17.6306 17.0264 17.6306H18.8031C19.6915 17.6306 20.2837 18.2968 20.1728 19.1852C20.0616 20.0736 19.3213 20.7399 18.433 20.7399H11.8439L11.4365 23.9979H18.1C20.8395 23.9979 23.0976 21.9619 23.4305 19.2224C23.7639 16.4461 21.9868 14.3729 19.2104 14.3729H17.4337C16.5453 14.3729 15.9531 13.7066 16.064 12.8182C16.1752 11.9298 16.9155 11.2636 17.8039 11.2636H24.393L24.8003 8.00586H18.2109C15.4345 8.00586 13.1392 10.0419 12.8063 12.8182Z" fill="black"/>
        <path d="M112.899 14.3732C113.121 12.6333 114.602 11.2636 116.268 11.2636H120.975L121.382 8.00586H116.675C113.269 8.00586 110.234 10.8194 109.79 14.3729L109.382 17.5934C108.938 21.1472 111.27 23.9604 114.676 23.9976H119.408L119.815 20.7399H115.083C113.418 20.703 112.27 19.3333 112.492 17.6302L112.899 14.3725V14.3732Z" fill="#FF2410"/>
        <path d="M97.3148 10.9678L96.0931 21.0366C95.8711 22.7394 96.9815 23.9982 98.6846 23.9982H106.569L106.977 20.7405H99.4249L99.795 17.6309H106.125L106.533 14.3732H100.202L100.573 11.2636H108.124L108.532 8.00586H100.647C98.9442 8.00586 97.5373 9.26439 97.3152 10.9674L97.3148 10.9678Z" fill="#FF2410"/>
        <path d="M68.6626 11.2636H73.1788L71.6242 23.9979H74.8819L76.4365 11.2636H80.9527L81.3601 8.00586H69.0699L68.6626 11.2636Z" fill="black"/>
    </g>
    <defs>
        <clipPath id="clip0_1219_39006">
            <rect width="109.946" height="16.2882" fill="white" transform="translate(11.4365 7.85742)"/>
        </clipPath>
    </defs>
</svg>
